<svg width="21" height="204" viewBox="0 0 21 204" fill="none" xmlns="http://www.w3.org/2000/svg">
<path d="M20.0273 0.536728H18.2948C18.0519 0.536728 17.8214 0.649819 17.6727 0.84333L7.45348 13.9694L2.55334 7.67402C2.47921 7.57859 2.38472 7.50143 2.27697 7.44833C2.16923 7.39523 2.05101 7.36756 1.93121 7.36742H0.198687C0.0326225 7.36742 -0.0590849 7.56093 0.0425367 7.69161L6.83136 16.4122C7.14862 16.8193 7.75835 16.8193 8.07808 16.4122L20.1835 0.858409C20.2851 0.730239 20.1934 0.536728 20.0273 0.536728V0.536728Z" fill="black"/>
<path d="M20.0273 40.9887H18.2948C18.0519 40.9887 17.8214 41.1018 17.6727 41.2953L7.45348 54.4214L2.55334 48.126C2.47921 48.0306 2.38472 47.9534 2.27697 47.9003C2.16923 47.8472 2.05101 47.8195 1.93121 47.8194H0.198687C0.0326225 47.8194 -0.0590849 48.0129 0.0425367 48.1436L6.83136 56.8641C7.14862 57.2713 7.75835 57.2713 8.07808 56.8641L20.1835 41.3104C20.2851 41.1822 20.1934 40.9887 20.0273 40.9887V40.9887Z" fill="black"/>
<path d="M20.0273 94.5876H18.2948C18.0519 94.5876 17.8214 94.7007 17.6727 94.8942L7.45348 108.02L2.55334 101.725C2.47921 101.629 2.38472 101.552 2.27697 101.499C2.16923 101.446 2.05101 101.418 1.93121 101.418H0.198687C0.0326225 101.418 -0.0590849 101.612 0.0425367 101.742L6.83136 110.463C7.14862 110.87 7.75835 110.87 8.07808 110.463L20.1835 94.9093C20.2851 94.7811 20.1934 94.5876 20.0273 94.5876V94.5876Z" fill="black"/>
<path d="M20.0273 143.13H18.2948C18.0519 143.13 17.8214 143.243 17.6727 143.437L7.45348 156.563L2.55334 150.267C2.47921 150.172 2.38472 150.095 2.27697 150.042C2.16923 149.988 2.05101 149.961 1.93121 149.961H0.198687C0.0326225 149.961 -0.0590849 150.154 0.0425367 150.285L6.83136 159.005C7.14862 159.413 7.75835 159.413 8.07808 159.005L20.1835 143.452C20.2851 143.323 20.1934 143.13 20.0273 143.13V143.13Z" fill="black"/>
<path d="M20.0273 187.627H18.2948C18.0519 187.627 17.8214 187.74 17.6727 187.934L7.45348 201.06L2.55334 194.764C2.47921 194.669 2.38472 194.592 2.27697 194.539C2.16923 194.486 2.05101 194.458 1.93121 194.458H0.198687C0.0326225 194.458 -0.0590849 194.651 0.0425367 194.782L6.83136 203.503C7.14862 203.91 7.75835 203.91 8.07808 203.503L20.1835 187.949C20.2851 187.821 20.1934 187.627 20.0273 187.627V187.627Z" fill="black"/>
</svg>
